<?xml version="1.0" encoding="UTF-8"?>
<svg id="Livello_2" data-name="Livello 2" xmlns="http://www.w3.org/2000/svg" xmlns:xlink="http://www.w3.org/1999/xlink" viewBox="0 0 928.1 391.2">
  <defs>
    <style>
      .cls-1 {
        fill: #fff;
      }

      .cls-1, .cls-2 {
        fill-rule: evenodd;
      }

      .cls-2 {
        fill: #fdffff;
      }

      .cls-3 {
        clip-path: url(#clippath);
      }

      .cls-4 {
        fill: none;
      }
    </style>
    <clipPath id="clippath">
      <rect class="cls-4" width="928.1" height="391.2"/>
    </clipPath>
  </defs>
  <g id="Livello_1-2" data-name="Livello 1">
    <g class="cls-3">
      <rect class="cls-4" y="213.6" width="362.5" height="5.8"/>
      <path class="cls-1" d="m0,213.6h362.5v5.8H0v-5.8Z"/>
      <rect class="cls-4" x="547.6" y="213.6" width="380.6" height="5.8"/>
      <path class="cls-1" d="m547.6,213.6h380.5v5.8h-380.5v-5.8Z"/>
      <rect class="cls-4" x="375.6" width="153.4" height="242.6"/>
      <path class="cls-1" d="m480.2,71.9l.2-.4c-1.3,16.2-12.9,28.5-31.8,28.5-20.2,0-32-13.8-32-31.4s10.7-30.5,29.1-31.8h34.5v35.1h0ZM528.9,1.8s-69.2-1.8-84.8-1.8c-40.9,0-68.5,33.4-68.5,72.5s30.2,69,69.4,69c17.6,0,30-5.8,42.3-18v30.7c0,21.4-9.6,40.5-34.9,40.5-32.5,0-35-32.7-36.1-37.4l-34.9,21.8s9.8,63.4,76.1,63.4c49.2,0,71.4-34.3,71.4-91V1.8h0Z"/>
      <rect class="cls-4" x="310.6" y="89.4" width="101.7" height="100.2"/>
      <path class="cls-1" d="m364.5,89.5l-53.9,69.2,32.1,30.9,69.6-43.6s-17.6-5.6-31.4-22.2c-14.6-17.4-16.4-34.3-16.4-34.3Z"/>
      <rect class="cls-4" y="255.9" width="928.2" height="135.3"/>
      <path class="cls-2" d="m277.5,330.7l-10-38.3c-1.5,7.1-9.1,38-9.1,38l19.1.3Zm-112-30.1c0-8.2-3.5-11.3-12.4-11.3h-5.8v23.1h6c8.2,0,12.2-3.8,12.2-11.8Zm161.8,84.3c-15.4,0-34.5,4.5-40.1-18.2-1.8-6-3.3-10.5-3.3-10.5h-32.9l-8.5,28.7h-29.8c-19.1,1.8-33.1,5.6-40.7-17.8h-.2c-1.8-5.3-3.1-9.6-3.6-10.5-2.7-9.1-4-11.6-6.4-14.9-2.5-3.5-4.2-4-10.5-4h-4v47.2h-32.7v-125h40.9c29.8,0,43.8,10.9,43.8,33.8,0,14.5-5.8,26.2-17.8,31.2,8.2,3.8,10.9,6.9,17.6,24.2l5.6,15.6c2.9,7.6,5.1,12,6.9,14.7,6-19.8,26.7-86.3,32.3-101.9,6.2-18.5,19.1-18.3,31.8-18.3,7.3,0,11.8.7,11.8.7l39.8,125Zm567.9-62.3c0-19.8-7.8-32.3-20.9-32.3s-20.9,12.7-20.9,32.7,8.7,31.8,21.4,31.8c12.8.1,20.4-11.9,20.4-32.2Zm32.9-.2c0,38.3-21.8,64.3-53.4,64.3-19.8,0-36.1-10.2-45.4-27.2-.2,7.8-3.8,25.4-26,25.4h-41.4v-125h32.7v95.7h32.9c-4.3-9.6-6.7-20.5-6.7-33.2,0-37.4,22-64.5,53-64.5,31.6,0,54.3,27.2,54.3,64.5Zm-335.8-10.2h-6v-23.2h5.8c9.1,0,12.7,3.3,12.7,11.6s-4.2,11.6-12.5,11.6Zm58.3,67.2c-1.8-2.9-4-7.3-6.9-14.9l-5.6-15.4c-6.4-17.6-9.3-20.7-17.3-24.5,11.8-4.9,17.8-16.5,17.8-31.2,0-22.7-14.2-33.8-43.8-33.8h-41v125.3h32.5v-47.2h4c6.2,0,8.2.2,10.7,3.8,2.2,3.3,3.8,6,6.5,15.1.2.9,1.8,5.1,3.6,10.2,7.6,23.6,23.1,19.6,42.3,17.8l-2.8-5.2Zm69.5-56.8c0-19.8-7.8-32.3-20.9-32.3s-20.9,12.7-20.9,32.7,8.5,31.8,21.4,31.8c12.8.1,20.4-11.9,20.4-32.2Zm32.7-.2c0,38.3-21.6,64.3-53.2,64.3s-53.9-26.2-53.9-64.3,22-64.5,53-64.5c31.6,0,54.1,27.2,54.1,64.5Zm-358.5-43.6c0,24.2,0,35.4.2,42.5l-2-3.3c-.2-.9-.9-2.2-1.8-3.5l-2.2-3.8c-1.6-2.9-30.3-50.7-30.3-50.7h-30.9v125h31.6v-58.7c0-.5,0-1.6-.2-3.1l-.2-4c1.8,2.7,2.2,4,3.3,5.8l35.8,60.1h28l.4-126.8c.1-.2-31.9-5.3-31.7,20.5Zm105.5,51.9l-10-38.3c-1.5,7.1-9.3,38-9.3,38l19.3.3Zm10-70.8l39.8,125c-15.4,0-34.5,4.5-40.3-18.2-1.6-6-3.3-10.5-3.3-10.5h-32.7l-8.5,28.7h-32.7s27.6-89.2,34-107.5c6.2-18.5,19.1-18.3,31.8-18.3,7.4.1,11.9.8,11.9.8ZM33.2,324.4c0,10.9,3.5,20.7,10.2,27.4,5.3,5.3,12.4,8.4,20.2,8.4,1.8,0,2.9-.2,4.5-.7l2-.4h1.3v-35.1h30.9v61c-12,4.2-23.6,6.2-35.8,6.2-19.8,0-36.3-6.2-48.3-18.3C6.4,361.1-.1,344.2-.1,324.9c0-20.3,6.9-38.1,19.4-50.5,12-12,28.3-18.5,46.9-18.5,6.5,0,13.6.9,19.4,2.7,28.5,8.9,15.1,37.4,15.1,37.4-10.9-7.8-19.6-9.1-30.5-9.1-22.6-.1-37,14.6-37,37.5Z"/>
    </g>
  </g>
</svg>